<?xml version="1.0" standalone="no"?>
<!DOCTYPE svg PUBLIC "-//W3C//DTD SVG 20010904//EN"
 "http://www.w3.org/TR/2001/REC-SVG-20010904/DTD/svg10.dtd">
<svg version="1.0" xmlns="http://www.w3.org/2000/svg"
 width="350.000000pt" height="350.000000pt" viewBox="0 0 350.000000 350.000000"
 preserveAspectRatio="xMidYMid meet">
<metadata>
Created by potrace 1.11, written by Peter Selinger 2001-2013
</metadata>
<g transform="translate(0.000000,350.000000) scale(0.100000,-0.100000)"
fill="#000000" stroke="none">
<path d="M2826 3467 c-15 -19 -26 -39 -26 -44 0 -6 -44 -58 -97 -115 -168
-180 -248 -271 -283 -323 -18 -27 -72 -89 -119 -136 -47 -48 -138 -141 -201
-208 -63 -67 -145 -152 -182 -189 -144 -145 -308 -325 -308 -338 0 -8 -7 -14
-15 -14 -8 0 -15 -6 -15 -12 -1 -16 -86 -74 -120 -81 -14 -4 -122 -11 -240
-16 -163 -7 -244 -7 -335 3 -66 7 -126 11 -133 8 -20 -7 -14 -44 18 -98 63
-110 91 -124 295 -144 120 -12 155 -22 155 -41 0 -6 -19 -34 -43 -62 -24 -29
-54 -69 -67 -89 -14 -21 -28 -38 -32 -38 -10 0 -91 -88 -126 -135 -16 -22 -56
-69 -90 -103 -34 -35 -81 -91 -106 -125 -45 -64 -249 -289 -267 -296 -16 -5
-209 -240 -209 -254 0 -7 -33 -56 -74 -109 -96 -127 -169 -245 -162 -263 7
-19 119 -75 149 -75 30 0 44 16 159 190 53 80 125 178 160 217 228 260 298
342 298 348 0 4 16 25 35 48 19 22 35 46 35 52 0 6 26 40 58 77 53 60 140 169
219 271 33 43 52 66 145 174 29 34 71 86 93 117 60 84 68 86 314 86 134 0 211
-4 211 -10 0 -5 -4 -10 -10 -10 -5 0 -10 -14 -10 -32 0 -17 -3 -29 -6 -25 -8
8 -44 -61 -44 -85 0 -10 -7 -18 -16 -18 -10 0 -14 -6 -11 -14 3 -8 -6 -24 -19
-37 -15 -14 -23 -31 -21 -41 3 -10 1 -21 -4 -24 -5 -3 -16 -20 -23 -39 -8 -18
-24 -43 -36 -55 -15 -15 -20 -29 -16 -46 7 -26 -18 -64 -42 -64 -8 0 -12 -6
-9 -14 3 -8 -3 -22 -14 -32 -13 -12 -18 -26 -15 -39 4 -16 -1 -25 -18 -35 -16
-8 -29 -30 -41 -69 -9 -31 -26 -64 -37 -73 -22 -20 -108 -216 -108 -247 0 -11
-20 -61 -45 -112 -25 -51 -45 -102 -45 -115 0 -12 -6 -26 -13 -32 -7 -6 -26
-39 -42 -74 -17 -35 -33 -64 -37 -66 -5 -2 -8 -9 -8 -16 0 -7 -16 -43 -35 -80
-19 -37 -35 -75 -35 -85 0 -10 -7 -32 -16 -50 -21 -42 -30 -111 -15 -111 6 0
11 7 11 15 0 19 85 168 104 184 8 7 20 32 27 56 7 25 16 45 20 45 4 0 16 21
28 48 33 71 54 105 74 120 9 7 17 19 17 27 0 7 6 26 14 42 8 15 21 44 30 63
23 48 54 94 97 144 38 42 159 275 159 304 0 10 13 24 29 33 19 11 30 27 35 51
3 19 17 45 29 56 13 12 29 38 37 57 7 19 22 37 32 41 10 3 18 13 18 22 0 9 9
32 20 50 11 17 17 32 13 32 -4 0 3 10 14 23 12 12 39 56 61 97 102 194 135
251 154 261 12 6 37 9 56 5 21 -3 42 -1 50 6 9 8 16 9 20 1 9 -13 135 -2 237
21 39 9 80 16 92 16 12 0 104 25 205 55 110 33 252 66 358 85 96 16 204 38
240 48 l65 19 -145 3 c-80 1 -152 2 -160 1 -40 -5 -245 -11 -525 -17 -317 -7
-355 -4 -355 30 0 19 132 276 217 421 38 66 156 289 263 495 106 206 199 384
206 395 32 45 7 106 -52 131 -51 21 -71 17 -98 -19z m-311 -616 c-3 -6 -13
-11 -22 -11 -9 0 -13 -6 -9 -15 3 -8 0 -15 -7 -15 -15 0 -47 -51 -47 -75 0 -9
-13 -33 -29 -53 -39 -50 -48 -82 -24 -83 16 0 15 -2 -4 -16 -13 -8 -23 -21
-23 -29 0 -7 -13 -22 -30 -34 -16 -12 -30 -29 -30 -38 0 -9 -14 -39 -30 -67
-16 -27 -30 -60 -30 -72 0 -13 -8 -24 -20 -28 -11 -3 -20 -13 -20 -22 0 -9 6
-13 15 -9 9 3 15 0 15 -9 0 -8 -5 -15 -11 -15 -6 0 -9 -7 -6 -15 4 -8 2 -17
-3 -20 -6 -4 -10 1 -10 9 0 9 -5 16 -11 16 -6 0 -9 -9 -6 -20 3 -12 0 -20 -8
-20 -8 0 -16 -19 -20 -50 -5 -33 -12 -50 -21 -50 -8 0 -14 -8 -14 -17 0 -10
-15 -28 -33 -40 -26 -17 -52 -23 -136 -28 -57 -3 -107 -7 -110 -9 -3 -2 -32
-1 -65 3 l-58 6 28 30 c57 60 174 199 174 206 0 4 46 54 103 111 56 58 123
127 149 154 26 27 55 56 65 65 10 9 34 34 53 57 19 23 41 42 47 42 7 0 20 12
30 28 10 15 32 41 49 57 17 17 35 37 40 46 8 15 65 48 73 43 1 -2 0 -7 -4 -13z"/>
</g>
</svg>
