<?xml version="1.0" encoding="UTF-8"?>
<svg data-bbox="59 9.88 1164.893 503.767" viewBox="0 0 1265.6 572.8" height="572.8" width="1265.6" xmlns="http://www.w3.org/2000/svg" data-type="shape">
    <g>
        <path d="M560.54 511.398c8.142-27.157 12.428-40.607 14.367-45.083 1.151-2.658 2.093-5.29 2.093-5.849 0-.559.639-2.434 1.42-4.167.78-1.733 2.913-7.201 4.739-12.151s3.662-9.15 4.08-9.334c.419-.183.761-.915.761-1.627s.59-1.783 1.31-2.381c.72-.598 1.92-3.333 2.668-6.077.752-2.762 1.8-4.719 2.345-4.382.542.336.694.138.338-.438-.67-1.086 3.81-11.817 5.327-12.754.472-.291 1.173-1.962 1.557-3.712.384-1.75 1.319-3.802 2.077-4.56.758-.758 1.378-2.208 1.378-3.223 0-1.015.352-1.996.781-2.179.912-.389 7.219-13.44 7.219-14.937 0-.558.52-.693 1.155-.3.73.45.882.273.413-.486-.407-.659.064-2.416 1.048-3.904 2.88-4.36 6.289-10.493 7.477-13.456.606-1.513 1.509-2.75 2.005-2.75s.898-.563.894-1.25c-.013-1.883 8.17-17.75 9.153-17.75 1.92 0 .662-3.81-2.145-6.5-1.65-1.581-3-3.229-3-3.662 0-.434 1.35-.518 3-.188 1.911.382 3 .191 3-.525 0-.619.822-1.125 1.826-1.125s2.73-1.013 3.836-2.25c2.32-2.597 10.317-14.834 12.58-19.25 2.82-5.505 8.859-15.962 11.071-19.173 1.203-1.745 3.537-5.516 5.187-8.38 1.65-2.863 3.675-5.935 4.5-6.827.825-.891 1.52-2.07 1.544-2.62.083-1.88 2.843-6.997 5.934-11 1.698-2.2 3.653-5.125 4.344-6.5 1.754-3.488 3.314-6.035 5.928-9.675 1.238-1.724 2.25-3.879 2.25-4.789 0-.91.445-1.38.989-1.043.556.343.74-.036.42-.867-.593-1.55-5.067-1.6-14.409-.162-5.587.86-9.317-1.172-7.086-3.86 3.34-4.024 25.925-16 33.018-17.507 2.987-.635 5.912-1.524 6.5-1.976 2.284-1.758 13.706-3.38 19.226-2.732 11.164 1.312 22.677 9.39 27.825 19.52 3.265 6.423 3.63 19.694.73 26.59-6.46 15.373-16.973 31.046-28.131 41.938-4.72 4.607-9.032 8.844-9.582 9.416-2.878 2.994-7.902 7.147-8.645 7.147-.467 0-2.538 1.513-4.602 3.364-4.421 3.962-9.338 6.636-12.203 6.636-1.128 0-2.05.382-2.05.848 0 1.58-9.516 5.043-23.5 8.552-2.75.69-5.675 1.52-6.5 1.843-.825.324-2.238.552-3.14.506-3.659-.184-7.567 2.462-9.675 6.55-1.192 2.31-3.455 6.45-5.03 9.2-1.574 2.75-4.566 8.15-6.649 12a2115.422 2115.422 0 0 1-9.146 16.65c-2.948 5.308-5.36 10.046-5.36 10.53 0 .483-.9 1.528-2 2.32-1.1.794-2 2.22-2 3.169 0 1.768-2.906 7.606-6.885 13.832-1.23 1.925-5.62 10.25-9.756 18.5-9.313 18.58-12.348 24.2-12.398 22.962-.022-.53-.678.507-1.458 2.303-.78 1.796-2.113 3.532-2.961 3.857-.848.326-1.542 1.648-1.542 2.94 0 1.291-1.738 6.306-3.861 11.143-2.124 4.837-4.202 9.92-4.618 11.295-1.417 4.684-9.589 20.414-11.558 22.249-1.08 1.006-1.963 2.546-1.963 3.423 0 1.578-4.74 6.324-6.317 6.327-.45 0-.514-1.012-.143-2.25zm114.913-193.91c1.4-.639 2.547-1.594 2.547-2.123 0-.53-.646-.426-1.436.23-.79.655-2.702 1.572-4.25 2.036-1.548.465-2.048.884-1.111.93.937.048 2.85-.435 4.25-1.074zm5.342-4.934c6.925-3.197 11.12-4.005 4.705-.906-2.66 1.285-3.33 1.938-2 1.951 1.1.01 3.125-.61 4.5-1.378 1.375-.77 4.886-2.548 7.801-3.954 3.692-1.78 5.21-3.065 5-4.234-.165-.923.324-1.895 1.088-2.161.847-.295 1.117-.043.691.646-.384.621-.395 1.13-.025 1.13 1.31 0 8.445-4.38 8.445-5.184 0-1.278-1.178-.965-3.177.844-1.01.914-2.067 1.43-2.35 1.147-.754-.755 7.712-6.262 9.859-6.413 2.167-.153 5.819-3.394 3.823-3.394-.7 0-.976-.48-.613-1.068.363-.588 1.177-.878 1.81-.645.631.233 2.048-.47 3.148-1.561 1.998-1.983 1.997-1.984-.5-.71-2.478 1.264-2.484 1.257-.656-.803 1.014-1.143 2.482-1.834 3.261-1.534.924.354 1.23.052.877-.866-.302-.786.688-2.494 2.238-3.861l2.78-2.452-2.424 2.75c-1.334 1.512-2.004 2.75-1.49 2.75 1.234 0 3.896-4.184 3.6-5.66-.128-.637 1.24-2.37 3.041-3.851 1.8-1.481 2.677-2.375 1.95-1.986-1.088.58-1.097.341-.05-1.334.7-1.122 1.703-1.774 2.228-1.45.525.324.685.155.357-.377-.33-.532.3-2.289 1.399-3.905 3.827-5.632 9.928-18.49 11.335-23.89 1.583-6.08 1.217-12.027-.87-14.114-2.202-2.203-9.76-3.434-16.953-2.762-5.24.489-7.166 1.145-9.132 3.11-1.37 1.37-2.49 3.153-2.49 3.961 0 1.435-5.738 9.429-7.244 10.091-.416.183-.757.948-.757 1.7s-1.302 3.302-2.893 5.667c-1.592 2.365-3.887 6.211-5.1 8.547-1.238 2.383-2.67 3.961-3.261 3.596-.62-.384-.76-.174-.337.51.395.638-.138 2.395-1.183 3.904-1.651 2.383-3.298 5.634-3.668 7.243-.126.543-4.747 7.86-7.711 12.21-1.016 1.49-1.847 2.938-1.847 3.218 0 .28-1.952 3.561-4.337 7.29-2.386 3.73-4.633 7.457-4.994 8.282-.361.825-2.396 4.254-4.523 7.62-4.473 7.082-4.053 7.226 6.649 2.286zm13.22-6.312c2.467-1.323 4.643-2.253 4.835-2.066.818.792-1.119 2.472-2.85 2.472-1.035 0-2.16.45-2.5 1-.34.55-1.372 1-2.294 1-.921 0 .343-1.083 2.81-2.406zM714 295.648c0-.55-.198-1-.441-1s-.72.45-1.059 1c-.34.55-.141 1 .441 1s1.059-.45 1.059-1zM251.604 435.895c.352-1.51 1.242-3.872 1.978-5.247a71.028 71.028 0 0 0 2.476-5.25c.626-1.513 1.508-2.75 1.96-2.75.453 0 1.114-1.327 1.47-2.948.357-1.622 1.967-4.609 3.58-6.638S266 408.76 266 408.01s.45-1.362 1-1.362 1-.497 1-1.103c0-.607 2.717-6.634 6.037-13.393 4.067-8.28 6.678-12.458 8-12.804 1.404-.367 1.963-1.373 1.963-3.535 0-1.662.675-3.697 1.5-4.522.825-.825 1.5-1.983 1.5-2.572 0-.59.45-1.071 1-1.071s1-.927 1-2.06c0-1.301.425-1.796 1.155-1.345.73.452.882.274.413-.485-.407-.659.04-2.416.993-3.904 1.739-2.715 2.597-3.783 6.393-7.956 1.125-1.238 2.046-2.925 2.046-3.75 0-.825.563-1.388 1.25-1.25.688.137 1.128-.342.978-1.065-.25-1.215 3.217-7.007 4.913-8.207.405-.286.948-1.687 1.207-3.113.259-1.426 1.636-3.758 3.061-5.183 1.425-1.425 2.591-3.103 2.591-3.729 0-1.381 3.917-6.503 4.84-6.329.363.069 1.642-2.012 2.842-4.624 1.2-2.612 3.262-5.597 4.58-6.635 1.319-1.037 2.2-2.477 1.96-3.2-.241-.723.495-2.184 1.636-3.247 1.179-1.099 1.82-2.594 1.486-3.465-.505-1.314-2.604-1.454-14.716-.979-7.77.305-16.603.852-19.628 1.217-8.129.98-10.99 1.03-16.25.282-2.612-.37-4.75-.31-4.75.138 0 1.741-8.262 2.804-26 3.345-10.175.31-20.975 1.06-24 1.666-3.025.606-7.384 1.181-9.686 1.277-5.008.21-7.627 2.32-10.904 8.781-1.305 2.574-3.208 5.274-4.23 6-1.02.726-2.14 3.094-2.486 5.262-.347 2.169-1.33 4.334-2.183 4.812-.854.478-1.298 1.282-.986 1.787.885 1.43-1.41 4.959-3.227 4.959-.897 0-1.35.282-1.005.627.849.848-2.08 6.373-3.378 6.373-.568 0-.755.449-.416.998.787 1.273-3.915 9.252-4.882 8.285-.398-.397-.408.097-.024 1.098.398 1.038.196 2.131-.47 2.543-.644.398-1.375 1.815-1.625 3.15-.25 1.334-1.318 3.134-2.371 4-1.054.867-3.14 4.017-4.635 7-1.496 2.984-3.388 6.185-4.204 7.113-.816.928-1.207 2.134-.87 2.68.338.547.157 1.277-.402 1.623-.585.361-1.016-.433-1.016-1.872 0-1.375.45-2.778 1-3.118.55-.34 1-1.73 1-3.09 0-1.36.672-2.731 1.494-3.046.822-.316 1.28-.921 1.018-1.346-.829-1.34 2.39-10.623 4.701-13.562 1.22-1.55 2.233-3.75 2.252-4.888.02-1.176.606-1.95 1.36-1.793.735.152 1.025-.209.651-.813-.37-.599-.01-1.847.8-2.775.809-.928 2.012-3.373 2.674-5.434.662-2.06 2.079-4.36 3.149-5.11 1.133-.794 1.7-2.001 1.36-2.892-.323-.84.623-3.94 2.103-6.89 1.48-2.949 3.835-7.65 5.235-10.445 3.882-7.758 3.031-8.708-7.042-7.857-4.54.383-8.93 1.037-9.755 1.453-2.077 1.046-9.78 2.16-24 3.47-8.036.74-38.68 4.486-41.754 5.104-2.1.423-11.261 10.973-16.852 19.406-1.279 1.93-3.671 5.308-5.316 7.508s-4.874 7.15-7.174 11c-5.583 9.343-6.703 10.5-10.158 10.5-2.463 0-14.746-6.4-14.746-7.683 0-.219.843-1.617 1.874-3.108 1.03-1.49 2.718-4.125 3.75-5.854 3.316-5.56 10.576-15.69 15.547-21.696 2.659-3.213 4.59-6.238 4.29-6.723-.3-.485-3.421-1.77-6.936-2.856-11.907-3.678-15.405-7.431-17.032-18.275-.38-2.542-.381-6.038 0-7.77.59-2.686 1.083-3.105 3.349-2.843 2.035.236 2.73.93 2.965 2.96.45 3.895 4.84 5.335 15.693 5.145 4.95-.086 11.89-.175 15.422-.198l6.421-.04 9.579-9.806c9.588-9.816 17.083-18.903 20.624-25.004 1.038-1.789 2.706-3.512 3.708-3.83 1.001-.318 2.928-2.33 4.28-4.473 1.353-2.143 3.568-4.622 4.924-5.51 1.355-.888 2.75-2.52 3.102-3.624.35-1.105 2.28-3.718 4.289-5.806 2.008-2.088 4.657-5 5.886-6.47 1.297-1.551 2.726-2.37 3.405-1.95.675.417.902.291.538-.298-.347-.562.259-1.826 1.346-2.81 1.087-.983 1.976-2.209 1.976-2.723 0-.514 2.25-3.46 5-6.545s5-5.884 5-6.219c0-1.89-3.007-4.187-5.555-4.242-6.695-.144-23.221-1.914-26.945-2.885-2.2-.574-5.077-2.015-6.392-3.204C135.422 197.98 129 187.614 129 184.994c0-2.27.2-2.326 6.25-1.776 3.438.312 9.4.968 13.25 1.458 4.196.533 15.213.5 27.5-.083 27.897-1.324 28.577-1.438 32.764-5.505 1.924-1.868 3.838-3.186 4.254-2.93.416.258.695-.314.62-1.271-.096-1.203.479-1.65 1.862-1.448 1.446.211 1.635.045.681-.6-.979-.664 1.726-4.003 10.5-12.966 6.5-6.64 13.394-13.957 15.319-16.261 4.16-4.98 6.774-7.464 7.854-7.464 1.131 0 3.588-2.79 3.977-4.516.361-1.606 15.17-15.963 16.478-15.976.445-.005.572-.392.282-.861s1.034-2.154 2.941-3.744c1.907-1.59 3.472-3.345 3.478-3.898.005-.553 2.773-3.48 6.151-6.505 3.379-3.025 6.862-6.358 7.74-7.407.88-1.049 2.961-3.524 4.626-5.5 1.665-1.976 3.69-4.901 4.5-6.5.81-1.6 3.386-4.507 5.723-6.462 2.338-1.955 4.25-4.006 4.25-4.557 0-.55 1.956-3.043 4.347-5.538C330.49 47.839 335 42.899 335 42.062c0-.523 1.177-2.682 2.615-4.798 2.454-3.611 2.861-3.816 6.598-3.314 4.623.62 8.425 3.772 9.288 7.701.442 2.014-.102 3.792-2.029 6.625-1.448 2.13-7.34 13.322-13.092 24.872-5.753 11.55-12.211 24.15-14.353 28-2.14 3.85-5.435 10.15-7.32 14-4.737 9.67-16.188 30.025-18.664 33.172-1.124 1.429-2.043 3.124-2.043 3.767 0 .643-1.276 3.18-2.835 5.64-1.56 2.458-3.123 5.617-3.475 7.018-.351 1.402-1.797 4.255-3.213 6.341-1.415 2.086-2.83 5.08-3.146 6.656-.483 2.417-.167 3.018 2.027 3.852 3.018 1.147 1.507 1.117 35.142.712 14.3-.173 27.692-.667 29.761-1.1 2.234-.466 4.264-.384 5 .204 1.245.993 13.774-.048 15.824-1.314.551-.341 1.545-.224 2.209.26.663.485 5.706.616 11.206.292 5.5-.324 10.491-.236 11.092.197.6.432 1.29.588 1.532.346.241-.242 5.15-.452 10.908-.466 17.46-.043 32.252-.715 35.007-1.59 1.078-.342 1.961-.204 1.961.308 0 .511 1.238.755 2.75.541 1.512-.213 6.35-.672 10.75-1.02 7.374-.583 7.893-.503 6.628 1.026-1.734 2.095.35 2.323 2.409.264 1.044-1.045 4.157-1.354 12.428-1.234 6.07.087 11.035-.112 11.035-.443 0-.33 2.665-.697 5.923-.815 4.792-.173 6.122.13 6.97 1.586.978 1.683 1.048 1.686 1.077.05.022-1.285.856-1.75 3.137-1.75 2.525 0 2.993.328 2.498 1.75-.57 1.637-.525 1.64.717.05 1.297-1.664 5.082-1.904 7.401-.471.626.387 1.429.234 1.784-.34.38-.617 4.29-.985 9.557-.901 4.93.078 8.665.54 8.36 1.034-.796 1.288 2.267 2.227 4.326 1.326.963-.421 2.059-.704 2.436-.628.377.075 2.177-.492 4-1.262 2.938-1.24 3.539-1.21 5.297.272 1.791 1.508 1.86 1.51.714.024-1.163-1.508-.195-1.652 11.517-1.715 7.032-.037 14.136-.158 15.786-.268 7.74-.516 14.607.147 13.87 1.34-.411.665.885.246 2.88-.932 1.997-1.177 3.776-1.701 3.955-1.164.185.556 6.768 1.12 15.31 1.312 8.242.185 16.11.624 17.485.975 2.179.557 2.243.508.5-.381-1.47-.75-.144-.89 5-.53 3.85.27 7.45.545 8 .612.55.067 4.375-.23 8.5-.66 6.559-.686 11.032-.762 29.309-.498 2.615.038 3.585.417 3.096 1.21-.481.777-.27.88.646.313 1.86-1.149 19.38-1.492 23.011-.45 1.616.463 2.938.497 2.938.074 0-.422 2.025-.844 4.5-.938 3.032-.115 4.505.24 4.515 1.088.012.922.249.89.889-.12 1.168-1.845 13.464-.897 17 1.31.94.586 1.179.511.723-.227-.829-1.34 6.279-2.9 7.233-1.587.762 1.05 6.384 1.586 5.742.547-.244-.394 1.771-.705 4.477-.691 2.706.014 4.92-.363 4.92-.838s1.464-.56 3.251-.19c5.461 1.129 9.19 1.222 10.48.26.756-.564 2.434-.496 4.364.177 1.725.601 3.534.847 4.02.546.488-.301.893.042.901.762.01.883.255.953.75.217.806-1.197 8.235-1.378 8.235-.2 0 .4.749.442 1.664.09.915-.35 1.408-.224 1.096.282-.313.506.47.92 1.74.92s2.109-.325 1.864-.72c-.968-1.567 4.37-1.79 7.865-.329 4.206 1.757 10.308 2.188 7.771.549-1.297-.839-1.275-.972.167-.985.916-.008 1.893.547 2.17 1.235.404 1 .52 1 .584 0 .115-1.813 6.079-1.625 6.079.19 0 .793.445 1.717.989 2.053.568.351.733-.054.388-.953-.437-1.138-.159-1.394 1.024-.94.894.343 2.334.035 3.2-.685 1.351-1.12 1.528-1.03 1.238.639-.488 2.803-2.592 3.129-19.589 3.032-8.387-.047-15.25.251-15.25.664 0 .412-.93.75-2.066.75-1.136 0-2.993.496-4.127 1.103-1.583.847-2.26.79-2.919-.25-.698-1.101-.863-1.074-.888.147-.027 1.323-.141 1.325-.97.014-.77-1.22-1.49-1.28-3.992-.335-1.744.659-2.793.733-2.447.173.645-1.043-5.292-.24-9.341 1.263-1.421.528-2.25.454-2.25-.199 0-.569-.435-.765-.967-.437-.532.329-6.044.781-12.25 1.006-6.206.224-11.508.485-11.783.579-.275.094-3.2.262-6.5.371-5.422.181-9.848.867-13.218 2.05-.67.235-1.463.03-1.763-.455-.3-.486-1.808-.52-3.351-.078s-4.574.602-6.737.355c-2.162-.247-4.381-.4-4.931-.339-.55.061-4.375.237-8.5.392-4.125.155-8.963.623-10.75 1.04-1.834.428-3.25.364-3.25-.148 0-.498-1.35-.708-3-.466-1.953.287-3 .01-3-.795 0-.848-.393-.926-1.25-.251-1.263.995-10.144 2.517-14.75 2.528-3.448.008-6.923-.96-8.678-2.416-1.013-.841-1.685-.892-2.148-.164-.37.582-3.374 1.149-6.674 1.259-21.32.71-27.556 1.012-32 1.556-6.99.856-17.574.528-19.7-.61-1.238-.663-2.686-.487-4.741.576-3.182 1.646-7.631 2.032-8.435.732-.734-1.188-18.118-.542-20.559.764-1.158.62-2.496.886-2.972.592-.477-.294-1.422.135-2.102.954-1.536 1.85-3.106 1.951-2.417.155.564-1.47.172-1.555-7.074-1.54-7.906.015-12.323-.02-14.75-.114-1.237-.049-9.225.213-17.75.582-24.344 1.052-36.042 1.147-36.567.297-.267-.431-2.355-.124-4.641.682-2.7.953-7.684 1.43-14.224 1.362-5.537-.057-11.29.367-12.783.942-1.725.665-2.931.695-3.31.082-.339-.548-1.326-.61-2.286-.146-1.904.923-2.873.87-5.565-.305-1.08-.471-3.202-.342-5 .304-1.718.618-5.711 1.425-8.874 1.793-3.162.369-5.75 1.036-5.75 1.482 0 .447 1.35 2.813 3 5.258 4.987 7.39 4.115 10.089-8.455 26.165-3.875 4.956-8.73 11.48-10.787 14.5-2.059 3.02-5.546 7.256-7.75 9.416-2.205 2.159-4.008 4.464-4.008 5.123 0 .659-1.844 3.167-4.098 5.574-2.253 2.407-5.574 6.627-7.38 9.377-1.805 2.75-4.282 5.899-5.505 6.997-3.262 2.933-5.15 6.97-3.862 8.258.737.737-.032 1.567-2.563 2.768-1.988.944-4.735 3.047-6.104 4.673-1.368 1.627-2.488 2.592-2.488 2.145 0-.446-.957.982-2.126 3.174-1.17 2.191-4.505 6.235-7.412 8.985-2.907 2.75-5.993 6.427-6.86 8.172-.865 1.745-3.267 5.195-5.338 7.667-2.07 2.471-6.014 7.269-8.764 10.661-2.75 3.393-6.012 7.321-7.25 8.73-1.237 1.409-2.25 3.146-2.25 3.86 0 .713-.807 1.884-1.793 2.603-.986.719-4.319 4.682-7.406 8.807-3.087 4.125-7.005 8.526-8.707 9.78-1.702 1.254-3.094 2.932-3.094 3.73 0 3.311-3.255 9.21-5.967 10.811-1.6.945-4.26 4.072-5.91 6.949-1.65 2.876-4.603 6.974-6.562 9.105-1.958 2.132-3.561 4.202-3.561 4.6 0 .399-1.352 2.59-3.004 4.872-1.652 2.28-2.89 4.272-2.75 4.424.46.502-4.014 5.729-4.903 5.729-.478 0-1.33 1.012-1.892 2.25-.564 1.237-1.57 2.137-2.238 2-.667-.138-1.213.487-1.213 1.388 0 .9-1.808 3.6-4.018 5.998-3.738 4.054-3.974 4.167-3.378 1.611zm4.396-4.247c0-.55-.198-1-.441-1s-.72.45-1.059 1c-.34.55-.141 1 .441 1s1.059-.45 1.059-1zM142.532 290.596c.404-.654 2.756-.825 6.22-.45 3.063.33 5.834.229 6.158-.226.325-.455 4.64-.577 9.59-.272 4.95.305 9.225.267 9.5-.085.275-.352 7.336-.884 15.69-1.183 13.61-.486 15.424-.76 17.439-2.637 1.236-1.153 3.176-2.147 4.31-2.211 1.704-.096 1.756-.196.299-.576-.97-.253-1.49-.901-1.156-1.441.334-.54.733-2.132.887-3.538.155-1.406.845-2.905 1.534-3.331.733-.453.926-1.34.465-2.136-.434-.75-.42-1.028.032-.619.451.41 1.454-.16 2.229-1.266.774-1.106 1.826-1.752 2.336-1.437.571.353.573-.362.005-1.856-.772-2.03-.484-2.784 1.753-4.589 2.068-1.667 2.371-2.35 1.332-2.995-.985-.612-.64-1.013 1.291-1.497 1.45-.364 2.366-1.099 2.036-1.632-.33-.534.154-.971 1.076-.971 1.665 0 1.654-1.107-.051-5.25-.482-1.17-.263-1.75.659-1.75 1.273 0 5.959-7.217 4.834-7.445-.275-.056.513-1.19 1.752-2.519 1.672-1.795 1.931-2.614 1.008-3.185-.974-.601-.942-1.048.145-2.06.766-.712 1.101-.777.748-.146-.353.63.012 1.396.81 1.702 1.173.45 1.268.076.497-1.952-.628-1.654-.614-2.3.043-1.893.549.339.997.14.997-.443s.649-1.06 1.441-1.06c.793 0 1.716-.444 2.052-.988.338-.547-.024-.745-.812-.442-.782.3-1.694-.16-2.025-1.024-.486-1.266-.075-1.455 2.12-.977 1.5.327 2.274.22 1.724-.237-1.132-.941-1.538-5.473-.429-4.787.893.551 2.324-2.564 2.02-4.395-.124-.742.143-1.136.592-.875.45.262 1.717.113 2.817-.329 1.698-.683 1.736-.815.25-.875-2.223-.09-2.396-4.07-.177-4.07.962 0 1.441-.68 1.233-1.75-.302-1.55-1.545-1.728-10.823-1.556-5.766.107-15.962.218-22.658.247-9.696.041-12.496.373-13.75 1.627-.866.866-1.578 1.205-1.582.753-.004-.452-.825.42-1.825 1.937-1 1.517-2.122 2.53-2.493 2.25-.371-.28-.463-.22-.203.13.26.352-.64 1.961-2 3.577-1.36 1.616-2.472 3.523-2.472 4.237 0 .715-2.04 3.043-4.531 5.174-2.493 2.13-5.274 5.4-6.181 7.265-.907 1.865-2.468 3.605-3.469 3.866-1 .262-1.819.94-1.819 1.506 0 .972-6.065 9.07-8.415 11.237-.597.55-3.222 3.7-5.833 7s-5.199 6.543-5.75 7.208c-.551.664-1.002 1.582-1.002 2.04 0 .46-1.687 2.43-3.75 4.382-4.942 4.676-6.954 7.254-6.572 8.418.172.523-1.71 3.183-4.183 5.91-2.472 2.727-4.495 5.09-4.495 5.25 0 .844 7.98.133 8.532-.76zm171.968-1.948c-.36-.584.656-1 2.441-1 1.738 0 3.093.54 3.138 1.25.063 1 .18 1 .583 0 .278-.688 1.844-1.25 3.48-1.25 1.637 0 2.748.368 2.47.819-.485.784 2.156.668 9.092-.4 2.294-.353 3.045-.909 2.644-1.956-.35-.91.045-1.463 1.045-1.463.884 0 1.607-.45 1.607-1s.927-1 2.059-1c1.175 0 1.782-.448 1.414-1.043-.354-.574.52-2.572 1.945-4.439 1.558-2.042 2.183-3.647 1.57-4.026-.561-.347-.757-1.057-.435-1.578a1.107 1.107 0 0 1 1.516-.372c.512.317.931-.26.931-1.283 0-2.009 1.792-4.26 3.391-4.26.545 0 .118.639-.948 1.419-1.067.78-1.657 1.7-1.312 2.046 1.036 1.036 6.83-7.022 7.516-10.45.35-1.753 1.248-3.42 1.995-3.707.747-.287 1.365-1.036 1.373-1.664.008-.629 1.617-2.943 3.576-5.143l3.562-4-2.716 3.777c-1.494 2.077-2.45 4.044-2.124 4.37.724.723 3.687-2.11 3.687-3.526 0-.562.562-1.382 1.25-1.822.687-.44 1.857-1.877 2.599-3.194 1.187-2.108 1.159-2.322-.235-1.787-1.348.517-1.401.314-.359-1.355.674-1.08 1.97-1.963 2.879-1.963.908 0 1.92-.699 2.248-1.552.37-.968.185-1.299-.493-.88-.764.473-.756.052.026-1.41.713-1.332 1.693-1.862 2.716-1.47 1.238.475 1.457.165.97-1.37-.415-1.31.055-2.602 1.385-3.805 1.108-1.003 2.014-2.198 2.014-2.657 0-1.442 3.41-5.003 5.625-5.875 1.56-.614 2.004-1.47 1.671-3.212-.353-1.848.175-2.681 2.375-3.747 1.556-.754 3.15-1.298 3.543-1.209.393.09.477-.454.188-1.207-.289-.754.611-2.597 2-4.096 1.39-1.499 2.43-3.24 2.312-3.868-.306-1.634-4.867-2.76-6.315-1.558-.83.69-1.436.665-1.894-.076-.37-.6-1.58-.802-2.689-.45-3.81 1.21-13.856 1.743-23.816 1.264-.825-.04-8.925.262-18 .671-9.075.41-22.238.794-29.25.856-7.013.061-12.75.345-12.75.631 0 .286-4.163.48-9.25.433-5.088-.048-9.7.165-10.25.472-1.724.963-3.535.98-2.946.027.31-.502-.363-.912-1.495-.912-1.132 0-2.059.502-2.059 1.116 0 .7-.84.855-2.25.414-4.975-1.554-9.464-.065-11.329 3.758-3.695 7.579-10.837 20.265-11.567 20.547-.476.185-.612.747-.301 1.25.31.503.16.915-.336.915-.495 0-1.432 1.776-2.083 3.946-.65 2.17-2.296 4.823-3.658 5.894-2.59 2.038-3.377 3.734-1.226 2.645.687-.349.462.012-.5.8-.963.79-1.75 2.011-1.75 2.715 0 .704-.788 1.877-1.75 2.608-1.254.952-1.361 1.337-.378 1.36 1.965.045-.598 3.032-2.601 3.032-.87 0-1.26.586-.941 1.417.299.78-.131 1.676-.957 1.993-.825.317-1.218 1.032-.873 1.59.589.952-2.18 4.551-3.429 4.457-.733-.056-3.119 6.828-2.56 7.387.548.548-4.036 4.156-5.28 4.156-.525 0-.758 1.023-.519 2.274.283 1.482-.446 3.226-2.09 5-1.39 1.5-2.071 2.726-1.515 2.726.556 0 .733.45.393 1-.934 1.51 20.784 1.316 22.3-.2.933-.934 1.2-.878 1.2.25 0 1.241 4.812 1.422 33.5 1.254 20.516-.12 33.5.171 33.5.75 0 .52.477.946 1.059.946s.78-.45.441-1zm38.5-24.41c0-.19.675-.906 1.5-1.59.865-.718 1.5-.815 1.5-.23 0 .559-.675 1.275-1.5 1.591-.825.317-1.5.42-1.5.23zm-124-12.983c0-.216-.698-.661-1.552-.989-.89-.341-1.291-.174-.94.393.586.95 2.492 1.406 2.492.596zm164.493-36.596c.35-.567-.051-.734-.941-.393-1.732.665-2.05 1.382-.611 1.382.518 0 1.216-.445 1.552-.989zm8.007-9.011c.34-.55.141-1-.441-1s-1.059.45-1.059 1 .198 1 .441 1 .72-.45 1.059-1zM721 186.04c0-.216-.675-.393-1.5-.393s-1.5.436-1.5.968c0 .533.675.71 1.5.393.825-.316 1.5-.752 1.5-.968zm-328.553-3.479a1.117 1.117 0 0 0-1.532-.361 1.117 1.117 0 0 0-.362 1.532 1.117 1.117 0 0 0 1.532.362 1.117 1.117 0 0 0 .362-1.533zm-159.197.424c-.688-.278-1.813-.278-2.5 0-.688.277-.125.504 1.25.504s1.938-.227 1.25-.504zm3.75-.338c0-.55 2.223-1 4.941-1s5.236-.477 5.596-1.06c.414-.67 1.16-.394 2.027.75.816 1.076 1.385 1.303 1.404.56.021-.824 1.686-1.25 4.886-1.25 3.792 0 5.444-.547 7.551-2.5 1.484-1.375 3.125-2.5 3.647-2.5.521 0 .948-.477.948-1.06 0-.582-.445-.783-.989-.447-.574.355-.73-.063-.37-.999.34-.885 1.24-1.37 2-1.078 1.028.394 1.23-.081.787-1.846-.414-1.65-.072-2.67 1.116-3.335 1.16-.65 1.349-1.184.584-1.656-.62-.383-1.128-1.362-1.128-2.173 0-1.14.432-1.245 1.898-.46 1.532.82 2.201.552 3.474-1.391 1.184-1.807 1.272-2.53.352-2.902-.68-.275-.42-.53.585-.574.995-.044 1.53-.53 1.191-1.08-.34-.55-.124-1 .48-1 .707 0 .639-.495-.19-1.389-.798-.86-1.528-1.009-1.915-.393-.414.66-.834.659-1.244-.006-.692-1.12 2.079-2.509 3.388-1.7.462.286.669-.828.46-2.475-.215-1.705.225-3.598 1.024-4.396.77-.771 1.187-1.617.925-1.879s.21-1.046 1.048-1.741c.838-.696 1.524-1.885 1.524-2.643 0-.757.45-1.377 1-1.377s.947-.338.882-.75c-.498-3.153.378-5.099 2.538-5.64 1.657-.417 2.63-1.558 3.082-3.618.363-1.655 1.023-2.786 1.466-2.512.443.274 1.357-.167 2.03-.978 1.375-1.657.566-4.969-.98-4.014-.57.353-.746-.034-.412-.905.321-.836 1.047-1.422 1.614-1.302.566.12 1.257-.406 1.535-1.17.347-.957.075-1.14-.875-.587-.76.442-.114-.4 1.434-1.872 1.832-1.742 2.615-3.3 2.245-4.466-.313-.985.134-2.668.991-3.739 1.501-1.873 1.519-1.862.47.303-.662 1.365-.71 2.25-.123 2.25 1.187 0 2.441-3.644 1.679-4.878-.305-.492.454-1.171 1.685-1.508 1.87-.513 1.991-.777.739-1.599-1.273-.835-1.224-.987.321-1 1.002-.008 2.497-.69 3.322-1.515.97-.97 1.083-1.5.321-1.5-.687 0-.924-.729-.569-1.75.489-1.402.303-1.352-.936.25-.85 1.1-1.863 2.04-2.252 2.089-1.306.164-5.717 2.283-4.886 2.347.452.035.227.665-.5 1.399-.726.734-2.195 2.507-3.263 3.94-1.069 1.433-2.306 2.38-2.75 2.106-.445-.275-.823.09-.841.81-.051 2.005-3.588 5.809-5.402 5.809-.888 0-2.042 1.125-2.565 2.5-.523 1.375-1.527 2.5-2.231 2.5s-1.833 1.248-2.509 2.775c-.693 1.566-2.582 3.285-4.335 3.947-2.02.762-2.847 1.596-2.362 2.38.425.688.326.947-.23.604-.883-.546-4.333 2.534-4.333 3.869 0 1.3-15.66 17.588-16.68 17.349-.435-.102-1.53 1.111-2.435 2.696-.904 1.584-2.055 2.798-2.557 2.699-.502-.1-.98.708-1.062 1.794-.081 1.086-3.104 4.989-6.717 8.673-3.612 3.685-6.821 7.496-7.13 8.471-.31.974-.984 1.512-1.498 1.194-.514-.318-1.244.238-1.622 1.235-.378.998-1.359 2.489-2.18 3.314-1.325 1.332-.853 1.533 4.222 1.8 3.281.173 5.465.705 5.128 1.25-.323.523-.11.95.472.95s1.059-.45 1.059-1zm35.638-22.5c-.316-.825-.14-1.5.393-1.5s.969.675.969 1.5-.177 1.5-.393 1.5c-.216 0-.652-.675-.969-1.5zm19.175-38.183c.721-.29 1.584-.254 1.916.079.332.332-.258.568-1.312.525-1.165-.048-1.402-.285-.604-.604zm483.569 60.13c.341-.89.173-1.29-.393-.94-.544.336-.989 1.034-.989 1.552 0 1.438.717 1.121 1.382-.611zM762 178.649c0-.55-.198-1-.441-1s-.72.45-1.059 1c-.34.55-.141 1 .441 1s1.059-.45 1.059-1zm3.73.396c-.333-.333-1.196-.368-1.918-.08-.797.32-.56.557.605.605 1.054.043 1.644-.193 1.312-.525zM496.51 382.148c.351-1.65 1.057-3.151 1.57-3.336.513-.184.685-.735.383-1.224-.302-.49.652-3.488 2.121-6.665 1.47-3.176 3.03-6.675 3.47-7.775.439-1.1 2.856-6.358 5.372-11.683 2.516-5.326 4.574-10.164 4.574-10.75 0-.587.45-1.067 1-1.067s1-.683 1-1.519c0-2.095 5.096-11.798 6.718-12.793.728-.446 1.073-1.217.767-1.712-.306-.496.59-2.719 1.992-4.939 1.401-2.22 2.205-4.044 1.786-4.053-.42-.008-.313-.345.237-.75.55-.404 2.125-2.979 3.5-5.722 1.375-2.743 3.19-5.683 4.033-6.533.843-.85 2.377-3.33 3.41-5.512 1.817-3.844 3.23-6.208 10.24-17.137 1.825-2.843 3.317-5.63 3.317-6.193 0-.563.86-1.627 1.913-2.364 1.052-.736 2.74-3.124 3.75-5.306 1.01-2.182 2.088-4.192 2.395-4.467.306-.275 2.59-3.65 5.075-7.5l9.2-14.25c2.576-3.988 5.13-7.25 5.675-7.25.546 0 .992-.408.992-.907 0-.5 2.024-3.987 4.498-7.75 2.474-3.764 4.499-7.627 4.5-8.584.002-1.494.853-1.699 6.012-1.443 5.393.267 6.4.678 9.792 3.99 4.305 4.204 5.223 4.428 7.562 1.844.92-1.017 4.927-3.08 8.905-4.586 3.977-1.506 9.34-3.599 11.916-4.651 12.167-4.968 24.147.385 26.278 11.741.588 3.133-1.792 12.569-4.383 17.379-.454.843-1.144 2.98-1.532 4.75-.389 1.77-1.095 3.217-1.57 3.217-.474 0-2.456 2.812-4.405 6.25-4.19 7.393-4.526 7.154-1.036-.737 6.655-15.05 9.569-32.71 5.604-33.968-2.43-.772-4.744.172-9.714 3.962-2.24 1.709-6.966 4.604-10.5 6.434-3.535 1.83-8.07 4.73-10.079 6.443-2.008 1.714-5.833 4.664-8.5 6.556-11.258 7.989-16.234 11.826-22.848 17.624-3.85 3.375-8.575 6.652-10.5 7.284-2.488.816-4.355 2.522-6.457 5.9-1.626 2.613-3.25 4.977-3.61 5.252-.36.275-1.397 1.95-2.304 3.72-.908 1.772-2.449 4.022-3.425 5-2.865 2.873-9.542 12.206-14.508 20.28-2.537 4.125-5.468 8.027-6.514 8.67-1.046.645-3.319 3.682-5.05 6.75-1.732 3.07-3.595 5.58-4.14 5.58-.546 0-.992.605-.992 1.345s-.903 2.162-2.006 3.16c-1.104.999-1.791 2.031-1.528 2.294.263.263-.634 1.8-1.994 3.416-1.36 1.616-2.472 3.541-2.472 4.278 0 .737-.338 1.49-.75 1.673-.412.184-2.083 2.921-3.711 6.084-1.629 3.162-3.316 5.75-3.75 5.75-.434 0-.789.884-.789 1.965 0 1.08-.877 2.434-1.95 3.008-1.071.573-2.534 2.138-3.25 3.476-2.31 4.322-8.514 12.944-12.269 17.05l-3.657 4zm389.382-20.493c-2.464-2.59-4.013-5.314-4.408-7.75-.336-2.067-1.534-8.204-2.663-13.64-1.803-8.672-1.892-10.385-.73-14 .73-2.264 1.746-4.409 2.26-4.765 3.212-2.223 13.177-43.635 14.343-59.602.856-11.709-.94-11.14-10.171 3.222-3.172 4.934-7.951 11.684-10.62 15-14.546 18.067-16.9 21.08-16.902 21.62 0 .326-1.579 1.442-3.507 2.48-1.928 1.04-3.751 2.662-4.05 3.607-.3.945-1.31 1.97-2.245 2.276-.935.307-3.274 2.743-5.199 5.412-5.822 8.074-17.823 21.475-21.613 24.133-1.96 1.375-5.79 4.412-8.51 6.75-2.719 2.337-5.16 4.25-5.424 4.25-.957 0 2.675-7.48 5.31-10.935 1.487-1.948 3.952-6.022 5.479-9.054 3.47-6.888 12.45-20.99 17.348-27.242 2.038-2.601 4.202-5.586 4.808-6.631 1.755-3.029 9.455-13.987 15.554-22.138 17.508-23.396 27.14-38.267 27.755-42.85.507-3.785.812-4.15 3.456-4.15 1.886 0 3.092-.612 3.45-1.75.302-.963 1.012-2.875 1.577-4.25l1.027-2.5 1.642 2.478c.902 1.363 2.322 3.17 3.155 4.014 6.384 6.476 9.55 15.517 10.503 30.008l.692 10.5 2.865.105c1.602.058 2.603-.32 2.27-.857-.361-.585.729-.729 2.78-.367 1.857.327 2.842.347 2.189.044-1.325-.614 2.571-5.13 4.011-4.65.454.15.526-.208.162-.798-.816-1.32 4.053-6.38 5.361-5.572.52.321 1.199-.082 1.51-.894.322-.84 1.232-1.223 2.105-.887 1.828.701 2.03-.732.342-2.42-.929-.929-.76-1.526.75-2.669 2.557-1.934 4.028-1.941 2.427-.012-1.057 1.273-.995 1.42.378.893 1.966-.755 2.061-1.567.391-3.352-1.027-1.098-.822-1.233 1.144-.756 1.797.435 2.109.294 1.25-.564-1.408-1.408-1.516-3.092-.144-2.244.555.343 1.007-.41 1.015-1.691.008-1.27.346-1.86.75-1.31s1.59 1.148 2.635 1.329c1.758.304 1.778.207.264-1.307-1.5-1.5-1.504-1.836-.04-4.07.877-1.339 1.996-2.186 2.485-1.884.49.303.891.074.891-.508 0-.583-.55-1.06-1.223-1.06-.672 0-.193-.72 1.065-1.601s2.569-1.32 2.913-.977c.344.344 1.135-.62 1.758-2.144.684-1.674 1.894-2.771 3.06-2.773 1.094-.002 1.804-.59 1.642-1.36-.428-2.032 1.714-4.109 3.522-3.415.95.365 1.336.198.96-.412-.349-.562.061-1.876.91-2.92.862-1.061 1.268-1.236.92-.397-.34.825.189.397 1.177-.95 3.238-4.418 6.353-7.05 8.341-7.05 1.075 0 1.955-.675 1.955-1.5s.45-1.5 1-1.5 1-.9 1-2 .47-2 1.044-2c.574 0 .97-.563.881-1.25a13.07 13.07 0 0 1-.043-2.455c.169-1.72 4.95-6.295 6.58-6.295.754 0 1.6-.563 1.879-1.25.39-.965.702-.976 1.36-.051.613.86 1.905.208 4.577-2.313 3.483-3.286 5.142-6.382 2.568-4.79-.716.441-.884.274-.441-.442.392-.635 1.41-1.154 2.261-1.154.942 0 1.33-.568.991-1.451-.306-.798.358-2.486 1.477-3.75 1.509-1.706 1.891-1.848 1.481-.55-.367 1.164-.02 1.75 1.033 1.75 1.083 0 1.423-.621 1.072-1.962-.283-1.08.125-2.494.906-3.142 1.165-.966 1.292-.838.71.713-.626 1.667-.511 1.73.966.528.922-.75 1.458-1.715 1.192-2.145-.266-.43.4-1.842 1.478-3.137 1.079-1.295 1.976-1.806 1.995-1.136.044 1.597 2.716.551 3.444-1.347.347-.903.144-1.214-.522-.802-.772.476-.767.07.017-1.393 1.55-2.897 3.089-3.628 3.125-1.485.029 1.736.073 1.735 1.091-.016.584-1.004.804-2.083.49-2.397-.8-.8 6.662-6.227 7.687-5.593.46.283.692-.266.518-1.221-.195-1.071.396-1.849 1.541-2.028 2.931-.459 6.934-4.629 5.403-5.628-.934-.61-.613-1.326 1.24-2.766 1.374-1.069 2.655-1.497 2.846-.951.216.617.874.556 1.74-.163.765-.635 1.174-1.506.91-1.935-.266-.429.554-1.04 1.82-1.358 2.138-.537 11.027-9.06 11.308-10.843.07-.436.181-1.194.25-1.685.07-.491.824-1.161 1.677-1.489.854-.327 1.3-.188.993.309-.587.95 5.59-.99 6.455-2.027.275-.33 1.175-.857 2-1.171 1.195-.455 1.144-.587-.25-.65-2.652-.12-2.152-1.171 2.5-5.26 2.338-2.053 3.93-3.753 3.54-3.777-.392-.023-1.625.938-2.74 2.135-1.116 1.197-2.37 1.835-2.789 1.417-.83-.83 5.125-6.594 6.814-6.594.574 0 .765.45.425 1-1.038 1.679.075 1.123 2.792-1.395 1.422-1.318 2.344-2.636 2.05-2.93-.295-.295 1.33-1.487 3.61-2.65 2.28-1.164 4.414-2.883 4.742-3.82.892-2.554 6.493-8.208 7.508-7.58 1.257.776 3.798-1.561 3.801-3.498 0-2.019 5.442-5.748 7.714-5.288 1.353.273 1.446.062.483-1.099-1.47-1.77.87-4.228 5.01-5.26 1.49-.372 3.232-1.307 3.872-2.078 1.33-1.602 3.918-1.885 3.918-.428 0 .536-1.346 1.67-2.99 2.52-1.645.851-3.71 2.645-4.59 3.988-.88 1.342-2.385 2.69-3.345 2.994-.961.305-4.633 3.249-8.16 6.541-3.703 3.456-7.003 5.765-7.806 5.462-1.123-.423-1.154-.239-.163.956 1.005 1.21.755 1.955-1.367 4.077-1.427 1.427-2.949 2.377-3.381 2.11-.432-.267-2.285 1.276-4.117 3.428-1.832 2.152-3.838 3.624-4.456 3.271-.619-.353-.785-.267-.37.19.416.459-2.677 4.468-6.874 8.911-11.14 11.794-20.864 21.862-22.768 23.578-.916.825-2.588 2.625-3.715 4-1.128 1.375-1.728 1.879-1.335 1.12.48-.924.257-1.213-.674-.875-.764.278-1.276 1.013-1.137 1.635.138.621-2.337 3.718-5.5 6.88-13.54 13.54-20.223 20.967-20.507 22.79-.48 3.085-1.697 4.45-3.97 4.45-1.16 0-1.818.29-1.464.644.354.354-.584 2.087-2.084 3.852-1.5 1.765-3.51 4.654-4.467 6.42-.958 1.768-2.19 2.936-2.739 2.597-.558-.345-.757.011-.45.809.33.862-1.462 3.354-4.535 6.302-2.794 2.682-6.157 7.126-7.472 9.876-1.316 2.75-3.6 6.125-5.075 7.5-3.501 3.262-13.779 16.727-15.902 20.832-.913 1.765-3.734 5.225-6.268 7.689-2.535 2.463-4.265 4.479-3.843 4.479.42 0-.864 1.988-2.855 4.418-1.992 2.43-3.62 4.675-3.62 4.989 0 .313-.643 1.363-1.428 2.331-.785.97-4.542 5.587-8.348 10.262-3.807 4.675-7.638 9.887-8.512 11.582-.875 1.695-3.253 5.07-5.285 7.5-2.032 2.43-4.187 5.543-4.79 6.918-.602 1.375-3.188 5.425-5.745 9-10.454 14.61-19.03 36.389-19.1 48.5-.062 10.662-2.539 12.195-8.901 5.507zm62.02-127.727c1.257-.966.92-.976-1.617-.048-2.595.95-2.982 1.44-2.036 2.58.973 1.173 1.243 1.18 1.617.047.247-.747 1.163-1.908 2.036-2.58zm32.588-39.28c.34-.55.168-1-.382-1s-1.278.45-1.618 1c-.34.55-.168 1 .382 1s1.278-.45 1.618-1zm73.026-66.807c-.307-.308-1.114 0-1.793.683-.98.987-.865 1.102.56.56.986-.376 1.541-.935 1.233-1.243zm54-52c-.307-.308-1.114 0-1.793.683-.98.987-.865 1.102.56.56.986-.376 1.541-.935 1.233-1.243zM749.463 356.967c-2.807-2.806-1.497-10.746 3.375-20.46 6.24-12.442 10.467-19.663 19.967-34.108 1.356-2.062 3.467-4.762 4.691-6 1.224-1.238 3.023-3.826 3.997-5.751 1.747-3.453 8.953-13.845 11.96-17.25.851-.963 1.21-1.757.797-1.766-.413-.008-.286-.345.282-.75.857-.61 9.221-12.05 18.816-25.734 6.617-9.437 8.721-13.044 9.671-16.572l1.058-3.928h5.538c4.788 0 5.935.396 8.462 2.923 3.254 3.254 3.852 8.042 1.77 14.178-1.144 3.371-7.574 13.635-12.152 19.399-2.458 3.093-14.536 19.183-27.7 36.9-4.128 5.555-9.029 11.675-10.89 13.6-1.863 1.925-4.505 5.3-5.87 7.5-1.367 2.2-5.096 6.475-8.287 9.5-3.19 3.025-6.111 6.75-6.49 8.276-.378 1.527-1.579 3.253-2.667 3.836-1.089.582-2.9 3.158-4.024 5.723-2.484 5.666-7.442 12.165-9.28 12.165-.74 0-2.1-.756-3.024-1.68zm-330.834-16.963c-4.047-4.047-6.309-8.264-8.045-15-2.231-8.655-2.035-10.574 1.916-18.79 1.925-4.002 3.5-7.791 3.5-8.421 0-.63.42-1.145.933-1.145.513 0 1.243-.98 1.623-2.177.38-1.197 1.76-3.33 3.068-4.74 1.307-1.41 2.376-2.931 2.376-3.382 0-.45 1.33-2.48 2.955-4.51s3.675-5.424 4.556-7.542c.88-2.118 2.7-4.951 4.045-6.296 1.344-1.344 2.444-2.904 2.444-3.466 0-.562 2.026-3.509 4.501-6.548 2.476-3.04 4.25-5.934 3.941-6.433-.308-.498-.083-.906.499-.906s1.059-.675 1.059-1.5.425-1.5.945-1.5c.896 0 1.572-1.04 5.69-8.75.954-1.788 2.085-3.25 2.513-3.25.428 0 2.538-2.588 4.689-5.75 2.151-3.163 6.285-8.338 9.187-11.5 5.531-6.03 7.886-6.876 13.35-4.798 6.019 2.288 5.379 7.54-2.095 17.192-4.053 5.235-24.173 34.74-27.779 40.737-3.825 6.361-14.219 22.916-18.008 28.683-4.564 6.945-7.388 13.873-6.156 15.105.918.919 5.183-1.173 9.505-4.664 2.013-1.625 8.159-6.494 13.659-10.82 5.5-4.326 10.642-8.642 11.427-9.591 1.502-1.817 6.872-4.981 8.573-5.052.55-.023 1-.524 1-1.114 0-1.465 3.075-4.428 4.595-4.428.681 0 .927-.311.547-.691-1.026-1.027 8.492-10.31 10.57-10.31.984 0 1.788-.664 1.788-1.476 0-1.702 9.06-11.523 10.63-11.523.577 0 1.573-1.15 2.214-2.557.695-1.527 1.628-2.27 2.315-1.845.65.402.88.274.527-.296-.342-.555.998-2.312 2.979-3.905 1.98-1.593 4.554-3.976 5.718-5.294 4.224-4.782 6.727-7.103 7.662-7.103.525 0 .955-.492.955-1.092 0-2.009 3.502-5.574 5.01-5.101.82.257 1.17.123.78-.297-1.16-1.247 1.952-6.211 5.67-9.047 1.904-1.453 3.735-3.5 4.068-4.552.334-1.051 1.294-1.911 2.133-1.911.84 0 1.76-.895 2.046-1.989.286-1.094.92-1.742 1.407-1.441.487.301.886-.18.886-1.07 0-.89.45-1.34 1-1 .55.34 1-.014 1-.786 0-1.546 3.725-5.322 4.493-4.555.916.916-3.252 13.917-5.118 15.966-1.725 1.894-3.458 4.602-8.875 13.87-1.1 1.881-3.202 4.677-4.672 6.212-1.47 1.535-3.169 4.295-3.775 6.132-.607 1.838-3.102 5.551-5.545 8.251-2.442 2.7-4.456 5.192-4.475 5.536-.018.345-1.833 2.538-4.033 4.874s-4 4.788-4 5.45c0 .66-1.012 2.155-2.25 3.322-1.238 1.166-3.375 4.223-4.75 6.794-1.375 2.57-4.463 6.757-6.862 9.304-2.4 2.546-6.45 7.08-9 10.074-2.551 2.995-6.438 7.045-8.638 9-2.2 1.956-5.899 5.58-8.22 8.056-2.32 2.475-4.596 4.5-5.056 4.5-.46 0-4.626 3.15-9.258 7-15.096 12.549-23.054 16.5-33.234 16.5-3.488 0-5.035-.576-7.103-2.644zm419.733-160.052c1.065-1.065 3.724-1.252 3.084-.216-.31.501-1.287.912-2.172.912-.884 0-1.294-.313-.912-.696zm35.63-32.312c-4.616-4.942-7.856-16.992-4.569-16.992 1.82 0 7.278 4.572 8.756 7.334 2.93 5.476 2.753 12.666-.313 12.666-.585 0-2.328-1.354-3.874-3.008zm169.508-15.992c.996-1.1 2.035-2 2.31-2 .275 0-.315.9-1.31 2-.996 1.1-2.035 2-2.31 2-.275 0 .315-.9 1.31-2zM1091 87.27c0-.207.685-.946 1.523-1.641 1.273-1.057 1.42-.995.893.377-.538 1.402-2.416 2.385-2.416 1.264zm27-18.666c0-.574 2.453-3.353 5.451-6.175 2.998-2.822 5.221-5.502 4.941-5.956-.28-.454-.034-.825.549-.825.582 0 1.066.562 1.074 1.25.011.895.224.928.75.116 1.307-2.017 12.23-7.439 12.298-6.104.035.68.47.225.968-1.012.498-1.238 1.58-2.25 2.405-2.25.853 0 1.276-.586.98-1.357-.326-.851.711-1.864 2.782-2.715 3.942-1.621 11.008-6.266 12.78-8.401.697-.84 1.703-1.527 2.237-1.527 1.253 0 5.389-3.248 5.519-4.334.055-.458.434-1.133.843-1.5.409-.366.42-.104.024.584-.878 1.526-.102 1.588 2.492.2 1.08-.578 1.699-1.478 1.376-2-.323-.523.677-.933 2.222-.913 3.678.05 20.185-8.095 20.344-10.037.079-.962.297-1.07.61-.302.366.902 1.089.924 2.92.09 1.34-.61 2.435-1.487 2.435-1.949 0-.461.9-.84 2-.84s2-.401 2-.892c0-1.536 3.298-2.24 4.17-.891.598.925 1.04.97 1.58.161.412-.617 3.225-1.132 6.25-1.144 5.341-.02 5.273.186-.739 2.232-1.231.42-1.992 1.161-1.69 1.648.3.488-.12.887-.936.887-3.604 0-28.796 11.122-36.822 16.257-3.01 1.925-6.475 3.818-7.702 4.208-1.226.389-6.32 3.48-11.317 6.871-4.998 3.39-9.96 6.674-11.025 7.298-1.066.624-2.44 1.636-3.053 2.25-.614.614-1.771 1.116-2.572 1.116-.8 0-2.897 1.1-4.659 2.443-2.199 1.677-3.927 2.254-5.513 1.84-1.752-.46-2.175-.254-1.752.848.777 2.024-1.128 4.22-5.048 5.819-1.83.746-4.019 2.413-4.865 3.703-1.56 2.38-4.307 3.212-4.307 1.303z"/>
    </g>
</svg>
